# xmcd
#
# Track frame offsets:
#	150
#	17243
#	33566
#	49460
#	65226
#	78640
#	94318
#	117459
#	136414
#	153686
#	172137
#	184883
#	201649
#	221477
#	242151
#	262366
#	276505
#	297425
#	315050
#
# Disc length: 4428 seconds
#
# Revision: 2
# Processed by: cddbd v1.5.1PL2 Copyright (c) Steve Scherf et al.
# Submitted via: audiograbber 1.81.02
#
DISCID=42114a13
DTITLE=Любовь Белогорцева - Любовь поёт Вам о любви
DYEAR=2005
DGENRE=
TTITLE0=На ромашке гадала
TTITLE1=Моё Солнышко
TTITLE2=Фиалки
TTITLE3=Гуси-лебеди мои
TTITLE4=Не досолено
TTITLE5=Ветка рябины
TTITLE6=Моя любовь
TTITLE7=Медовый месяц
TTITLE8=Играй
TTITLE9=Я тебя никому не отдам
TTITLE10=Паутиночка
TTITLE11=Багульник
TTITLE12=Я буду ждать
TTITLE13=Обидушка
TTITLE14=Разлука
TTITLE15=Не клянись
TTITLE16=Девица-краса
TTITLE17=Рубашка
TTITLE18=Офицеры России
EXTD=
EXTT0=
EXTT1=
EXTT2=
EXTT3=
EXTT4=
EXTT5=
EXTT6=
EXTT7=
EXTT8=
EXTT9=
EXTT10=
EXTT11=
EXTT12=
EXTT13=
EXTT14=
EXTT15=
EXTT16=
EXTT17=
EXTT18=
PLAYORDER=
